<?xml version="1.0" encoding="utf-8"?>
<!-- Generator: Adobe Illustrator 26.0.1, SVG Export Plug-In . SVG Version: 6.00 Build 0)  -->
<svg version="1.1" id="Bleu_00000110457787154960465350000010427064608560296606_"
	 xmlns="http://www.w3.org/2000/svg" xmlns:xlink="http://www.w3.org/1999/xlink" x="0px" y="0px" viewBox="0 0 90.86 16.65"
	 style="enable-background:new 0 0 90.86 16.65;" xml:space="preserve">
<style type="text/css">
	.st0{fill:#666666;}
</style>
<g>
	<path class="st0" d="M26.03,4.55c0.62-0.64,1.13-1.09,1.53-1.35c0.4-0.26,0.73-0.39,0.98-0.39s0.44,0.11,0.56,0.32
		s0.19,0.49,0.19,0.82c0,0.23-0.04,0.48-0.11,0.74c-0.07,0.26-0.19,0.52-0.35,0.77c-0.16,0.26-0.36,0.5-0.61,0.73
		c-0.25,0.23-0.55,0.43-0.9,0.6c0.23,0,0.43,0.04,0.59,0.13c0.16,0.09,0.29,0.21,0.38,0.35c0.1,0.15,0.16,0.32,0.2,0.53
		c0.04,0.2,0.04,0.42,0.02,0.65l0.96-0.22c-0.04,0.1-0.08,0.18-0.11,0.24c-0.03,0.06-0.06,0.13-0.1,0.19
		c-0.03,0.06-0.05,0.1-0.06,0.13c-0.14,0.02-0.27,0.03-0.37,0.04c-0.1,0.01-0.23,0.02-0.4,0.02C28.36,9.23,28.21,9.61,28,10
		c-0.21,0.39-0.48,0.74-0.8,1.05c-0.32,0.31-0.69,0.56-1.11,0.74c-0.42,0.18-0.86,0.26-1.34,0.22c-0.06-0.01-0.13-0.03-0.2-0.08
		c-0.07-0.04-0.13-0.11-0.19-0.19c-0.06-0.08-0.1-0.18-0.12-0.3c-0.02-0.12-0.02-0.25,0.01-0.4c0.02-0.1,0.08-0.23,0.18-0.39
		c0.1-0.16,0.24-0.32,0.42-0.49c0.18-0.17,0.41-0.35,0.69-0.52c0.28-0.18,0.61-0.34,1-0.5c0.11-0.36,0.17-0.68,0.17-0.95
		c0-0.28-0.06-0.47-0.17-0.56c-0.11-0.1-0.25-0.15-0.41-0.15c-0.16,0-0.33,0.01-0.51,0.05s-0.33,0.06-0.46,0.05
		c-0.1,0.37-0.22,0.75-0.35,1.14c-0.13,0.39-0.28,0.77-0.44,1.14c-0.16,0.37-0.34,0.71-0.53,1.04c-0.19,0.32-0.41,0.61-0.64,0.86
		c-0.24,0.25-0.49,0.44-0.77,0.58c-0.28,0.14-0.57,0.21-0.89,0.21c-0.23,0-0.5-0.05-0.79-0.14c-0.26-0.09-0.36-0.15-0.32-0.2
		c0.04-0.04,0.17-0.08,0.38-0.11c0.26-0.03,0.51-0.22,0.75-0.57c0.24-0.35,0.47-0.82,0.7-1.43s0.46-1.32,0.7-2.15
		s0.49-1.73,0.76-2.72c0.1-0.38,0.21-0.78,0.32-1.18c0.11-0.4,0.23-0.82,0.35-1.24c0.02-0.02,0.09-0.02,0.19,0.01
		s0.23,0.08,0.37,0.16c0.14,0.07,0.29,0.16,0.44,0.25c0.15,0.1,0.29,0.19,0.41,0.29c0.12,0.1,0.22,0.19,0.29,0.28
		c0.08,0.09,0.11,0.17,0.09,0.23c-0.02,0.1-0.04,0.19-0.05,0.27C26.09,4.37,26.07,4.46,26.03,4.55z M24.77,11.39
		c0.14-0.01,0.28-0.06,0.42-0.16s0.28-0.23,0.42-0.4c0.14-0.16,0.27-0.35,0.4-0.56c0.13-0.21,0.24-0.43,0.35-0.67
		c-0.68,0.34-1.18,0.65-1.51,0.94s-0.49,0.51-0.49,0.67C24.36,11.32,24.49,11.38,24.77,11.39z M26.03,4.97
		c-0.11,0.16-0.21,0.38-0.31,0.67c-0.09,0.28-0.19,0.62-0.29,1l-0.14,0.52c0.31-0.13,0.59-0.32,0.85-0.56
		c0.25-0.25,0.46-0.51,0.64-0.77s0.31-0.53,0.4-0.79c0.1-0.26,0.14-0.46,0.14-0.61c0-0.13-0.02-0.22-0.07-0.29s-0.12-0.08-0.22-0.05
		c-0.1,0.03-0.23,0.12-0.4,0.26C26.46,4.48,26.26,4.69,26.03,4.97z"/>
	<path class="st0" d="M33.73,7.82c0.03-0.04,0.06-0.06,0.09-0.06c0.03,0,0.01,0.07-0.04,0.22c-0.13,0.32-0.28,0.65-0.46,0.98
		c-0.18,0.33-0.38,0.65-0.61,0.97c-0.22,0.31-0.46,0.6-0.72,0.88c-0.26,0.27-0.52,0.51-0.8,0.71c-0.34,0.25-0.65,0.37-0.92,0.37
		c-0.26,0-0.47-0.12-0.65-0.35c-0.18-0.24-0.27-0.63-0.27-1.19c0-0.44,0.05-0.87,0.14-1.29c0.1-0.42,0.2-0.83,0.31-1.22
		c0.03-0.14,0.09-0.36,0.17-0.68s0.18-0.69,0.3-1.1c0.12-0.42,0.24-0.86,0.38-1.34c0.14-0.48,0.28-0.95,0.42-1.41
		c0.14-0.46,0.28-0.89,0.41-1.29c0.13-0.4,0.25-0.73,0.35-1c0.03-0.06,0.06-0.12,0.09-0.16c0.03-0.04,0.06-0.07,0.1-0.07
		c0.12,0,0.26,0.03,0.41,0.1s0.3,0.15,0.46,0.26s0.3,0.22,0.43,0.34c0.14,0.12,0.25,0.23,0.34,0.34S33.8,2,33.83,2.08
		c0.02,0.07,0,0.11-0.06,0.11c-0.06,0.05-0.13,0.19-0.23,0.43c-0.1,0.24-0.21,0.53-0.34,0.88c-0.13,0.35-0.26,0.73-0.4,1.14
		c-0.14,0.41-0.27,0.81-0.4,1.21s-0.24,0.75-0.34,1.08s-0.18,0.58-0.23,0.76c-0.06,0.21-0.11,0.42-0.17,0.64
		c-0.06,0.22-0.11,0.43-0.15,0.64c-0.04,0.2-0.08,0.39-0.11,0.57c-0.03,0.18-0.04,0.33-0.04,0.46s0.03,0.23,0.08,0.3
		c0.06,0.07,0.15,0.1,0.29,0.08c0.14-0.01,0.29-0.09,0.47-0.25c0.18-0.16,0.36-0.36,0.55-0.6C32.93,9.27,33.11,9,33.28,8.7
		S33.6,8.11,33.73,7.82z"/>
	<path class="st0" d="M37.69,6.7c-0.37,0.44-0.75,0.86-1.14,1.27c-0.39,0.4-0.8,0.79-1.22,1.15c-0.06,0.34-0.1,0.64-0.1,0.88
		c0,0.18,0.03,0.33,0.08,0.45c0.06,0.12,0.15,0.22,0.28,0.28c0.06,0.02,0.12,0.04,0.2,0.05s0.16,0.02,0.25,0.02
		c0.25,0,0.51-0.07,0.78-0.22c0.27-0.15,0.54-0.35,0.81-0.61c0.27-0.26,0.53-0.57,0.77-0.93s0.48-0.76,0.68-1.19
		c0.04-0.08,0.07-0.12,0.08-0.12c0.02,0,0.02,0.02,0.02,0.06s-0.01,0.09-0.02,0.15c-0.02,0.06-0.04,0.11-0.06,0.15
		c-0.18,0.45-0.42,0.9-0.71,1.34c-0.29,0.45-0.62,0.85-0.98,1.2s-0.77,0.64-1.21,0.85c-0.44,0.22-0.89,0.32-1.37,0.31
		c-0.33-0.01-0.61-0.06-0.83-0.17c-0.23-0.1-0.41-0.25-0.56-0.43s-0.25-0.39-0.31-0.64s-0.1-0.51-0.1-0.79
		c0-0.35,0.05-0.73,0.15-1.12c0.1-0.4,0.24-0.79,0.41-1.17c0.18-0.38,0.38-0.75,0.62-1.1c0.24-0.35,0.5-0.66,0.78-0.93
		c0.28-0.27,0.57-0.48,0.87-0.64c0.3-0.16,0.6-0.24,0.91-0.24c0.28,0,0.53,0.07,0.74,0.22c0.22,0.14,0.42,0.31,0.6,0.49
		c0.1,0.13,0.15,0.26,0.15,0.38c0,0.13-0.02,0.25-0.08,0.37c-0.06,0.12-0.13,0.24-0.22,0.35C37.88,6.48,37.79,6.59,37.69,6.7z
		 M37.77,5.47c-0.22-0.02-0.45,0.05-0.68,0.22c-0.23,0.17-0.44,0.4-0.65,0.7s-0.39,0.62-0.56,1c-0.17,0.37-0.31,0.74-0.42,1.11
		c0.3-0.29,0.61-0.59,0.91-0.91c0.3-0.32,0.56-0.61,0.79-0.89c0.23-0.28,0.4-0.53,0.52-0.75C37.8,5.73,37.83,5.57,37.77,5.47z"/>
	<path class="st0" d="M46.38,7.82c0.01-0.03,0.03-0.06,0.05-0.07c0.03-0.02,0.05-0.02,0.06-0.01c0.01,0.01,0.02,0.04,0.01,0.07
		c0,0.04-0.03,0.09-0.08,0.16c-0.31,0.69-0.68,1.35-1.1,1.98c-0.42,0.63-0.92,1.15-1.48,1.55c-0.34,0.25-0.65,0.37-0.92,0.37
		c-0.26,0-0.47-0.12-0.65-0.35C42.09,11.29,42,10.89,42,10.33c0-0.13,0.01-0.26,0.02-0.4c0.01-0.14,0.03-0.29,0.07-0.45
		c-0.31,0.46-0.64,0.85-0.98,1.18c-0.34,0.33-0.69,0.53-1.03,0.61c-0.11,0.02-0.22,0.04-0.32,0.04c-0.22,0-0.4-0.05-0.55-0.14
		c-0.15-0.1-0.28-0.23-0.37-0.4c-0.1-0.17-0.17-0.37-0.22-0.59c-0.05-0.23-0.07-0.47-0.07-0.74c0-0.21,0.02-0.43,0.05-0.67
		c0.03-0.24,0.08-0.48,0.14-0.71c0.11-0.43,0.2-0.78,0.27-1.04c0.07-0.26,0.13-0.48,0.18-0.66s0.09-0.33,0.13-0.46
		c0.04-0.13,0.09-0.28,0.14-0.44l0.29-0.85c-0.02,0.08,0,0.17,0.08,0.26c0.08,0.1,0.18,0.19,0.31,0.28s0.27,0.18,0.43,0.27
		s0.32,0.16,0.47,0.22c0.15,0.06,0.29,0.1,0.42,0.13c0.12,0.02,0.21,0.02,0.27,0c-0.07,0.08-0.14,0.17-0.19,0.26
		c-0.06,0.1-0.11,0.21-0.16,0.34c-0.05,0.13-0.11,0.28-0.16,0.46c-0.06,0.18-0.12,0.38-0.19,0.62l-0.24,0.82
		c-0.09,0.29-0.15,0.54-0.19,0.76c-0.04,0.22-0.05,0.4-0.05,0.54c0,0.18,0.06,0.31,0.17,0.41h0.01c0.13,0.1,0.28,0.1,0.45,0.01
		c0.17-0.09,0.33-0.22,0.48-0.4c0.15-0.17,0.29-0.35,0.4-0.55s0.19-0.34,0.23-0.44c0.05-0.18,0.12-0.45,0.23-0.79
		c0.1-0.34,0.22-0.71,0.34-1.09c0.12-0.38,0.24-0.76,0.37-1.13c0.12-0.37,0.24-0.67,0.34-0.91c0.06-0.14,0.13-0.22,0.21-0.22
		c0.19,0,0.41,0.07,0.65,0.22c0.24,0.14,0.46,0.3,0.65,0.48c0.19,0.18,0.34,0.34,0.43,0.48c0.1,0.14,0.09,0.22-0.01,0.23
		c-0.09,0.08-0.19,0.21-0.29,0.4s-0.22,0.4-0.33,0.64c-0.11,0.24-0.22,0.5-0.32,0.78c-0.1,0.28-0.19,0.55-0.27,0.82
		s-0.14,0.53-0.19,0.78s-0.07,0.46-0.07,0.64c0,0.31,0.14,0.46,0.41,0.46c0.14-0.01,0.29-0.09,0.47-0.25
		c0.18-0.16,0.36-0.36,0.54-0.6c0.18-0.24,0.36-0.51,0.53-0.8S46.25,8.11,46.38,7.82z"/>
	<path class="st0" d="M51.95,6.3c0.02,0.19,0.1,0.26,0.24,0.21c0.14-0.05,0.29-0.17,0.46-0.36s0.34-0.42,0.52-0.7
		s0.31-0.55,0.41-0.82c0.1-0.27,0.14-0.5,0.13-0.71c-0.01-0.2-0.12-0.33-0.32-0.37c-0.19-0.09-0.4-0.05-0.63,0.13
		c-0.23,0.17-0.46,0.43-0.68,0.77c-0.23,0.34-0.45,0.74-0.65,1.21c-0.21,0.47-0.39,0.95-0.56,1.45s-0.29,1-0.39,1.49
		c-0.1,0.49-0.14,0.93-0.14,1.33c0,0.36,0.06,0.65,0.18,0.88c0.12,0.22,0.32,0.34,0.59,0.34c0.11,0,0.25-0.02,0.42-0.05
		s0.37-0.15,0.6-0.35c0.23-0.2,0.5-0.51,0.8-0.94c0.3-0.43,0.66-1.04,1.06-1.83c0.02-0.13,0.05-0.21,0.08-0.26
		c0.03-0.04,0.06-0.05,0.08-0.03c0.02,0.02,0.04,0.08,0.04,0.16s-0.02,0.17-0.06,0.28c-0.22,0.52-0.46,1.04-0.74,1.55
		c-0.28,0.52-0.58,0.98-0.9,1.4c-0.32,0.42-0.67,0.75-1.03,1.01c-0.36,0.26-0.73,0.38-1.12,0.38c-0.41,0-0.75-0.06-1.03-0.17
		c-0.28-0.12-0.5-0.28-0.67-0.49c-0.17-0.21-0.29-0.46-0.37-0.75s-0.11-0.62-0.11-0.98c0-0.35,0.03-0.74,0.1-1.16
		c0.07-0.42,0.15-0.85,0.26-1.28c0.16-0.66,0.37-1.28,0.63-1.87c0.26-0.59,0.56-1.1,0.89-1.55s0.69-0.8,1.09-1.06
		c0.39-0.26,0.8-0.39,1.22-0.39c0.42,0,0.86,0.14,1.32,0.43c0.18,0.12,0.32,0.26,0.4,0.43s0.13,0.34,0.13,0.52
		c0,0.19-0.04,0.38-0.13,0.58c-0.08,0.19-0.19,0.38-0.33,0.58s-0.29,0.38-0.47,0.58s-0.35,0.38-0.53,0.58
		c-0.14,0.14-0.27,0.28-0.41,0.43c-0.14,0.15-0.27,0.29-0.38,0.41s-0.21,0.21-0.29,0.26c-0.08,0.06-0.13,0.05-0.14-0.01
		s0.01-0.19,0.07-0.38C51.66,6.99,51.78,6.69,51.95,6.3z"/>
	<path class="st0" d="M59.64,9.9c0,0.31,0.15,0.46,0.46,0.46c0.14-0.01,0.29-0.09,0.47-0.25c0.18-0.16,0.36-0.36,0.54-0.61
		c0.18-0.25,0.36-0.52,0.53-0.83c0.17-0.3,0.33-0.61,0.46-0.92c0.02-0.02,0.04,0,0.06,0.05c0.02,0.05,0.02,0.11-0.02,0.18
		c-0.34,0.75-0.72,1.43-1.12,2.02c-0.4,0.6-0.89,1.1-1.46,1.51c-0.16,0.11-0.32,0.2-0.48,0.26c-0.16,0.06-0.31,0.1-0.44,0.1
		c-0.26,0-0.46-0.09-0.6-0.28c-0.14-0.18-0.23-0.41-0.27-0.67c-0.04-0.26-0.06-0.52-0.04-0.79c0.02-0.27,0.04-0.49,0.07-0.65
		c0.06-0.26,0.14-0.52,0.23-0.8c0.09-0.28,0.17-0.56,0.26-0.83c0.08-0.28,0.15-0.55,0.21-0.82c0.06-0.27,0.08-0.53,0.08-0.78
		c0-0.24-0.12-0.33-0.37-0.28c-0.13,0.02-0.28,0.14-0.47,0.36c-0.18,0.22-0.38,0.48-0.58,0.79c-0.2,0.31-0.4,0.65-0.59,1.01
		c-0.2,0.36-0.37,0.71-0.51,1.05c-0.14,0.51-0.25,0.94-0.35,1.3c-0.1,0.35-0.18,0.58-0.24,0.7c-0.07,0.08-0.14,0.12-0.2,0.12
		c-0.14,0-0.31-0.05-0.49-0.16c-0.18-0.1-0.34-0.23-0.49-0.37c-0.15-0.14-0.27-0.29-0.37-0.43c-0.1-0.14-0.14-0.26-0.13-0.34
		c0.05-0.18,0.13-0.5,0.25-0.95c0.12-0.45,0.25-0.97,0.41-1.55c0.16-0.59,0.33-1.21,0.52-1.87c0.18-0.66,0.37-1.29,0.55-1.9
		s0.35-1.15,0.51-1.64s0.3-0.85,0.41-1.09c0.07-0.14,0.14-0.22,0.2-0.22c0.13,0,0.27,0.03,0.42,0.1c0.15,0.07,0.3,0.15,0.46,0.26
		c0.15,0.1,0.29,0.22,0.43,0.34s0.24,0.23,0.32,0.33s0.14,0.19,0.16,0.26c0.02,0.07-0.01,0.11-0.08,0.11
		c-0.14,0.18-0.3,0.48-0.46,0.88c-0.16,0.4-0.33,0.87-0.5,1.4c-0.17,0.53-0.34,1.09-0.5,1.69s-0.32,1.18-0.47,1.74
		c0.21-0.29,0.41-0.59,0.62-0.89c0.2-0.31,0.4-0.6,0.6-0.88c0.2-0.28,0.39-0.53,0.58-0.76c0.19-0.23,0.38-0.41,0.55-0.55
		c0.2-0.15,0.38-0.26,0.54-0.32c0.16-0.06,0.3-0.1,0.43-0.1c0.43,0,0.73,0.11,0.89,0.32c0.16,0.22,0.24,0.5,0.24,0.84
		c0,0.34-0.07,0.73-0.2,1.15s-0.27,0.83-0.42,1.24c-0.15,0.41-0.29,0.79-0.41,1.14S59.64,9.71,59.64,9.9z"/>
	<path class="st0" d="M66.02,6.7c-0.37,0.44-0.75,0.86-1.14,1.27c-0.39,0.4-0.8,0.79-1.22,1.15c-0.06,0.34-0.1,0.64-0.1,0.88
		c0,0.18,0.03,0.33,0.08,0.45c0.06,0.12,0.15,0.22,0.28,0.28c0.06,0.02,0.12,0.04,0.2,0.05s0.16,0.02,0.25,0.02
		c0.25,0,0.51-0.07,0.78-0.22c0.27-0.15,0.54-0.35,0.81-0.61c0.27-0.26,0.53-0.57,0.77-0.93s0.48-0.76,0.68-1.19
		c0.04-0.08,0.07-0.12,0.08-0.12c0.02,0,0.02,0.02,0.02,0.06s-0.01,0.09-0.02,0.15c-0.02,0.06-0.04,0.11-0.06,0.15
		c-0.18,0.45-0.42,0.9-0.71,1.34c-0.29,0.45-0.62,0.85-0.98,1.2s-0.77,0.64-1.21,0.85c-0.44,0.22-0.89,0.32-1.37,0.31
		c-0.33-0.01-0.61-0.06-0.83-0.17c-0.23-0.1-0.41-0.25-0.56-0.43c-0.14-0.18-0.25-0.39-0.31-0.64c-0.06-0.24-0.1-0.51-0.1-0.79
		c0-0.35,0.05-0.73,0.15-1.12c0.1-0.4,0.24-0.79,0.41-1.17c0.18-0.38,0.38-0.75,0.62-1.1s0.5-0.66,0.78-0.93S63.9,4.96,64.2,4.8
		c0.3-0.16,0.6-0.24,0.91-0.24c0.28,0,0.53,0.07,0.74,0.22c0.22,0.14,0.42,0.31,0.6,0.49c0.1,0.13,0.15,0.26,0.15,0.38
		c0,0.13-0.02,0.25-0.08,0.37c-0.06,0.12-0.13,0.24-0.22,0.35C66.21,6.48,66.12,6.59,66.02,6.7z M66.11,5.47
		c-0.22-0.02-0.45,0.05-0.68,0.22c-0.23,0.17-0.44,0.4-0.65,0.7s-0.39,0.62-0.56,1c-0.17,0.37-0.31,0.74-0.42,1.11
		c0.3-0.29,0.61-0.59,0.91-0.91c0.3-0.32,0.56-0.61,0.79-0.89c0.23-0.28,0.4-0.53,0.52-0.75C66.13,5.73,66.16,5.57,66.11,5.47z"/>
	<path class="st0" d="M71.29,2.24c-0.06,0.05-0.15,0.18-0.25,0.38c-0.1,0.21-0.21,0.46-0.32,0.77c-0.11,0.3-0.23,0.64-0.35,1.01
		S70.12,5.16,70,5.54s-0.24,0.75-0.35,1.1C69.54,7,69.44,7.31,69.36,7.57c0.06,0.23,0.18,0.41,0.34,0.52
		c0.16,0.12,0.35,0.19,0.57,0.23c0.22,0.04,0.45,0.05,0.69,0.02s0.47-0.06,0.69-0.11c0.42-0.1,0.88-0.26,1.39-0.48
		s1.05-0.49,1.61-0.79c0.57-0.3,1.16-0.63,1.76-0.99c0.61-0.36,1.22-0.72,1.84-1.09c0.43-0.26,0.87-0.51,1.32-0.77
		s0.89-0.52,1.33-0.77c1.64-0.92,3.05-1.52,4.24-1.8c0.67-0.15,1.28-0.21,1.81-0.17s1.01,0.15,1.42,0.33s0.75,0.43,1.01,0.73
		c0.27,0.3,0.47,0.65,0.59,1.03c0.18,0.52,0.21,1.09,0.1,1.71c-0.11,0.62-0.36,1.22-0.77,1.81c-0.4,0.59-0.95,1.13-1.65,1.62
		c-0.7,0.49-1.54,0.87-2.54,1.15c-0.06,0.02-0.1,0-0.14-0.05c-0.04-0.05-0.07-0.11-0.08-0.17c-0.02-0.06-0.02-0.13,0-0.19
		c0.02-0.06,0.06-0.1,0.12-0.12c0.82-0.19,1.53-0.48,2.15-0.85c0.62-0.38,1.12-0.8,1.5-1.26s0.64-0.94,0.78-1.42
		c0.14-0.48,0.14-0.93,0-1.34c-0.1-0.27-0.26-0.51-0.49-0.73c-0.23-0.21-0.54-0.37-0.93-0.48c-0.39-0.11-0.85-0.16-1.4-0.14
		c-0.54,0.01-1.18,0.1-1.9,0.27c-0.48,0.11-1,0.27-1.55,0.46c-0.55,0.2-1.13,0.44-1.73,0.74c-0.49,0.23-1,0.48-1.53,0.73
		c-0.53,0.26-1.04,0.52-1.53,0.79c-0.56,0.23-1.09,0.48-1.6,0.75c-0.51,0.27-1,0.53-1.47,0.78c-0.47,0.25-0.93,0.48-1.38,0.7
		c-0.45,0.21-0.89,0.38-1.33,0.5c-0.44,0.12-0.88,0.19-1.33,0.2c-0.44,0.01-0.89-0.06-1.35-0.21c0.09,0.33,0.13,0.67,0.13,1.02
		c0,0.44-0.05,0.9-0.16,1.39c-0.11,0.48-0.25,0.96-0.43,1.43c-0.18,0.47-0.38,0.91-0.6,1.34s-0.46,0.8-0.7,1.12
		c-0.24,0.32-0.48,0.58-0.71,0.77c-0.24,0.19-0.45,0.29-0.64,0.29c-0.16,0-0.3-0.02-0.41-0.06c-0.12-0.04-0.22-0.11-0.3-0.22
		s-0.15-0.26-0.19-0.44s-0.06-0.43-0.06-0.71c0-0.49,0.08-1.16,0.23-2c0.15-0.85,0.39-1.94,0.72-3.26c0.06-0.22,0.15-0.55,0.27-0.98
		c0.12-0.43,0.27-0.91,0.43-1.45s0.33-1.1,0.51-1.69c0.18-0.59,0.35-1.15,0.52-1.69S68.86,2.52,69,2.08
		c0.15-0.44,0.27-0.78,0.35-1.02c0.05-0.15,0.11-0.23,0.18-0.23c0.12,0,0.26,0.03,0.41,0.1C70.1,1,70.25,1.08,70.4,1.19
		c0.15,0.1,0.3,0.22,0.44,0.34c0.14,0.12,0.26,0.23,0.35,0.34c0.09,0.11,0.15,0.2,0.17,0.27C71.38,2.21,71.36,2.24,71.29,2.24z
		 M66.93,10.18v0.06l0.01-0.06H66.93z M67.98,13.92c0.06,0.03,0.15,0,0.27-0.09c0.12-0.09,0.24-0.23,0.37-0.42
		c0.13-0.19,0.27-0.41,0.41-0.68c0.14-0.26,0.26-0.55,0.37-0.85c0.11-0.3,0.2-0.62,0.27-0.96c0.07-0.34,0.11-0.67,0.11-1
		c0-0.28-0.05-0.56-0.14-0.83c-0.09-0.28-0.27-0.54-0.53-0.8c-0.07,0.23-0.16,0.53-0.26,0.89c-0.1,0.36-0.21,0.74-0.31,1.15
		c-0.1,0.41-0.2,0.82-0.3,1.22c-0.1,0.41-0.17,0.78-0.23,1.12c-0.06,0.34-0.09,0.62-0.1,0.85C67.88,13.76,67.91,13.89,67.98,13.92z"
		/>
</g>
<g>
	<path class="st0" d="M23.72,6.96c-0.22-0.1-0.46-0.19-0.74-0.26c-0.28-0.07-0.56-0.12-0.86-0.16s-0.6-0.04-0.91-0.03
		s-0.61,0.05-0.89,0.11c-0.7,0.16-1.45,0.42-2.24,0.78c-0.79,0.36-1.61,0.77-2.45,1.23s-1.7,0.95-2.57,1.46
		c-0.87,0.51-1.74,1-2.6,1.46s-1.7,0.87-2.52,1.24c-0.82,0.37-1.6,0.64-2.33,0.82c-0.67,0.16-1.28,0.22-1.81,0.18
		c-0.54-0.04-1.01-0.15-1.42-0.34c-0.41-0.18-0.75-0.43-1.01-0.73c-0.27-0.3-0.47-0.65-0.59-1.03c-0.18-0.52-0.21-1.09-0.1-1.71
		c0.11-0.62,0.36-1.22,0.77-1.81c0.4-0.59,0.95-1.13,1.65-1.62c0.7-0.49,1.54-0.87,2.54-1.15c0.06-0.01,0.1,0.01,0.14,0.06
		s0.07,0.1,0.08,0.17s0.01,0.13-0.01,0.19c-0.02,0.06-0.06,0.1-0.11,0.12C4.91,6.13,4.19,6.42,3.57,6.79s-1.12,0.8-1.5,1.26
		C1.69,8.52,1.43,8.99,1.29,9.47c-0.14,0.48-0.14,0.93,0,1.34c0.1,0.28,0.26,0.52,0.49,0.73s0.54,0.37,0.93,0.47
		c0.39,0.11,0.85,0.16,1.4,0.14c0.54-0.01,1.18-0.1,1.9-0.27c0.74-0.17,1.49-0.41,2.25-0.73s1.53-0.67,2.31-1.06
		c0.78-0.39,1.56-0.79,2.35-1.21c0.79-0.42,1.58-0.81,2.37-1.18c0.79-0.37,1.57-0.69,2.35-0.97c0.78-0.28,1.55-0.47,2.31-0.58
		c0.76-0.11,1.51-0.11,2.24-0.01c0.74,0.1,1.46,0.35,2.16,0.74L23.72,6.96z"/>
</g>
</svg>
