<?xml version="1.0" encoding="utf-8"?>
<!-- Generator: Adobe Illustrator 26.0.1, SVG Export Plug-In . SVG Version: 6.00 Build 0)  -->
<svg version="1.1" xmlns="http://www.w3.org/2000/svg" xmlns:xlink="http://www.w3.org/1999/xlink" x="0px" y="0px"
	 viewBox="0 0 90.9 16.6" style="enable-background:new 0 0 90.9 16.6;" xml:space="preserve">
<style type="text/css">
	.st0{fill:#FFFFFF;}
</style>
<g id="Bleu_00000110457787154960465350000010427064608560296606_">
	<g>
		<path d="M29.5,8.3l-1,0.2c0-0.2,0-0.5,0-0.7c0-0.2-0.1-0.4-0.2-0.5C28.3,7.2,28.1,7.1,28,7c-0.2-0.1-0.4-0.1-0.6-0.1
			c0.4-0.2,0.7-0.4,0.9-0.6c0.2-0.2,0.5-0.5,0.6-0.7c0.2-0.3,0.3-0.5,0.3-0.8c0.1-0.3,0.1-0.5,0.1-0.7c0-0.3-0.1-0.6-0.2-0.8
			s-0.3-0.3-0.6-0.3S28,3,27.6,3.3c-0.4,0.3-0.9,0.7-1.5,1.3c0-0.1,0.1-0.2,0.1-0.3c0-0.1,0-0.2,0.1-0.3c0-0.1,0-0.1-0.1-0.2
			c-0.1-0.1-0.2-0.2-0.3-0.3c-0.1-0.1-0.3-0.2-0.4-0.3C25.3,3.2,25.1,3.1,25,3c-0.1-0.1-0.3-0.1-0.4-0.2s-0.2,0-0.2,0
			c-0.1,0.4-0.2,0.8-0.3,1.2c-0.1,0.4-0.2,0.8-0.3,1.2c-0.1,0.4-0.2,0.8-0.3,1.2c-0.4-0.1-0.8-0.2-1.2-0.3c-0.7-0.1-1.5-0.1-2.2,0
			c-0.8,0.1-1.5,0.3-2.3,0.6c-0.8,0.3-1.6,0.6-2.4,1C14.6,8.2,13.8,8.6,13,9c-0.8,0.4-1.6,0.8-2.4,1.2c-0.8,0.4-1.5,0.7-2.3,1.1
			S6.8,11.8,6.1,12c-0.7,0.2-1.4,0.3-1.9,0.3c-0.5,0-1,0-1.4-0.1c-0.4-0.1-0.7-0.3-0.9-0.5s-0.4-0.5-0.5-0.7c-0.1-0.4-0.1-0.9,0-1.3
			c0.1-0.5,0.4-1,0.8-1.4C2.5,7.7,3,7.2,3.6,6.9S5,6.2,5.8,6C5.8,6,5.9,6,5.9,5.9c0-0.1,0-0.1,0-0.2s0-0.1-0.1-0.2S5.7,5.5,5.7,5.5
			c-1,0.3-1.8,0.7-2.5,1.1c-0.7,0.5-1.2,1-1.7,1.6c-0.4,0.6-0.7,1.2-0.8,1.8c-0.1,0.6-0.1,1.2,0.1,1.7c0.1,0.4,0.3,0.7,0.6,1
			c0.3,0.3,0.6,0.5,1,0.7c0.4,0.2,0.9,0.3,1.4,0.3c0.5,0,1.1,0,1.8-0.2c0.7-0.2,1.5-0.4,2.3-0.8c0.8-0.4,1.7-0.8,2.5-1.2
			s1.7-0.9,2.6-1.5c0.9-0.5,1.7-1,2.6-1.5s1.7-0.9,2.5-1.2c0.8-0.4,1.5-0.6,2.2-0.8c0.3-0.1,0.6-0.1,0.9-0.1s0.6,0,0.9,0
			s0.6,0.1,0.9,0.2c0.1,0,0.2,0.1,0.3,0.1C23.2,7.3,23.1,7.7,23,8c-0.2,0.8-0.5,1.5-0.7,2.1s-0.5,1.1-0.7,1.4
			c-0.2,0.3-0.5,0.5-0.8,0.6c-0.2,0-0.3,0.1-0.4,0.1c0,0,0.1,0.1,0.3,0.2c0.3,0.1,0.6,0.1,0.8,0.1c0.3,0,0.6-0.1,0.9-0.2
			c0.3-0.1,0.5-0.3,0.8-0.6c0.2-0.2,0.5-0.5,0.6-0.9c0.2-0.3,0.4-0.7,0.5-1c0.2-0.4,0.3-0.7,0.4-1.1C25,8.4,25.1,8,25.2,7.6
			c0.1,0,0.3,0,0.5,0s0.3-0.1,0.5-0.1c0.2,0,0.3,0.1,0.4,0.1c0.1,0.1,0.2,0.3,0.2,0.6c0,0.3-0.1,0.6-0.2,0.9c-0.4,0.2-0.7,0.3-1,0.5
			c-0.3,0.2-0.5,0.3-0.7,0.5c-0.2,0.2-0.3,0.3-0.4,0.5c-0.1,0.2-0.2,0.3-0.2,0.4c0,0.2,0,0.3,0,0.4c0,0.1,0.1,0.2,0.1,0.3
			c0.1,0.1,0.1,0.1,0.2,0.2c0.1,0,0.1,0.1,0.2,0.1c0.5,0,0.9,0,1.3-0.2c0.4-0.2,0.8-0.4,1.1-0.7c0.3-0.3,0.6-0.7,0.8-1.1
			c0.2-0.4,0.4-0.8,0.4-1.1c0.2,0,0.3,0,0.4,0c0.1,0,0.2,0,0.4,0c0,0,0-0.1,0.1-0.1c0-0.1,0.1-0.1,0.1-0.2
			C29.5,8.5,29.5,8.4,29.5,8.3z M26.1,10.3c-0.1,0.2-0.3,0.4-0.4,0.6c-0.1,0.2-0.3,0.3-0.4,0.4s-0.3,0.2-0.4,0.2
			c-0.3,0-0.4-0.1-0.4-0.2c0-0.2,0.2-0.4,0.5-0.7s0.8-0.6,1.5-0.9C26.3,9.9,26.2,10.1,26.1,10.3z M27.2,5.1
			c-0.1,0.3-0.2,0.5-0.4,0.8s-0.4,0.5-0.6,0.8c-0.3,0.2-0.5,0.4-0.8,0.6l0.1-0.5c0.1-0.4,0.2-0.7,0.3-1C25.9,5.4,26,5.2,26.1,5
			c0.2-0.3,0.4-0.5,0.6-0.6c0.2-0.1,0.3-0.2,0.4-0.3c0.1,0,0.2,0,0.2,0s0.1,0.2,0.1,0.3C27.4,4.6,27.3,4.9,27.2,5.1z"/>
		<path d="M46.5,7.8C46.5,7.8,46.5,7.9,46.5,7.8c-0.2,0.4-0.3,0.7-0.5,0.9s-0.3,0.6-0.5,0.8c-0.2,0.2-0.4,0.4-0.5,0.6
			c-0.2,0.2-0.3,0.2-0.5,0.3c-0.3,0-0.4-0.1-0.4-0.5c0-0.2,0-0.4,0.1-0.6s0.1-0.5,0.2-0.8s0.2-0.5,0.3-0.8c0.1-0.3,0.2-0.5,0.3-0.8
			c0.1-0.2,0.2-0.5,0.3-0.6s0.2-0.3,0.3-0.4c0.1,0,0.1-0.1,0-0.2c-0.1-0.1-0.2-0.3-0.4-0.5c-0.2-0.2-0.4-0.3-0.6-0.5
			c-0.2-0.1-0.5-0.2-0.6-0.2c-0.1,0-0.1,0.1-0.2,0.2c-0.1,0.2-0.2,0.5-0.3,0.9C43.1,6,43,6.4,42.9,6.8c-0.1,0.4-0.2,0.7-0.3,1.1
			c-0.1,0.3-0.2,0.6-0.2,0.8c0,0.1-0.1,0.3-0.2,0.4s-0.3,0.4-0.4,0.5c-0.2,0.2-0.3,0.3-0.5,0.4c-0.2,0.1-0.3,0.1-0.4,0h0
			c-0.1-0.1-0.2-0.2-0.2-0.4c0-0.1,0-0.3,0.1-0.5c0-0.2,0.1-0.5,0.2-0.8l0.2-0.8c0.1-0.2,0.1-0.4,0.2-0.6c0.1-0.2,0.1-0.3,0.2-0.5
			c0.1-0.1,0.1-0.2,0.2-0.3c0.1-0.1,0.1-0.2,0.2-0.3c-0.1,0-0.1,0-0.3,0c-0.1,0-0.3-0.1-0.4-0.1c-0.2-0.1-0.3-0.1-0.5-0.2
			s-0.3-0.2-0.4-0.3S40,5,39.9,4.9c-0.1-0.1-0.1-0.2-0.1-0.3l-0.3,0.9c-0.1,0.2-0.1,0.3-0.1,0.4c0,0.1-0.1,0.3-0.1,0.5
			s-0.1,0.4-0.2,0.7c-0.1,0.3-0.2,0.6-0.3,1c-0.1,0.2-0.1,0.4-0.1,0.6c-0.1,0.1-0.1,0.2-0.2,0.3C38.2,9.5,38,9.8,37.7,10
			c-0.3,0.3-0.5,0.5-0.8,0.6c-0.3,0.1-0.5,0.2-0.8,0.2c-0.1,0-0.2,0-0.2,0s-0.1,0-0.2-0.1c-0.1-0.1-0.2-0.2-0.3-0.3
			c-0.1-0.1-0.1-0.3-0.1-0.5c0-0.2,0-0.5,0.1-0.9c0.4-0.4,0.8-0.7,1.2-1.1c0.4-0.4,0.8-0.8,1.1-1.3c0.1-0.1,0.2-0.2,0.3-0.3
			c0.1-0.1,0.2-0.2,0.2-0.3c0.1-0.1,0.1-0.2,0.1-0.4c0-0.1-0.1-0.3-0.1-0.4C38,5.2,37.8,5,37.6,4.9c-0.2-0.1-0.5-0.2-0.7-0.2
			c-0.3,0-0.6,0.1-0.9,0.2c-0.3,0.2-0.6,0.4-0.9,0.6c-0.3,0.3-0.5,0.6-0.8,0.9c-0.2,0.4-0.4,0.7-0.6,1.1c-0.2,0.4-0.3,0.8-0.4,1.2
			c0,0.1,0,0.2-0.1,0.3c-0.1,0.2-0.3,0.4-0.4,0.6c-0.2,0.2-0.4,0.4-0.5,0.6c-0.2,0.2-0.3,0.2-0.5,0.2c-0.1,0-0.2,0-0.3-0.1
			c-0.1-0.1-0.1-0.2-0.1-0.3s0-0.3,0-0.5c0-0.2,0.1-0.4,0.1-0.6c0-0.2,0.1-0.4,0.1-0.6c0.1-0.2,0.1-0.4,0.2-0.6
			c0-0.2,0.1-0.4,0.2-0.8s0.2-0.7,0.3-1.1s0.3-0.8,0.4-1.2c0.1-0.4,0.3-0.8,0.4-1.1c0.1-0.3,0.2-0.6,0.3-0.9
			c0.1-0.2,0.2-0.4,0.2-0.4c0.1,0,0.1,0,0.1-0.1c0-0.1-0.1-0.2-0.2-0.3s-0.2-0.2-0.3-0.3c-0.1-0.1-0.3-0.2-0.4-0.3S32.7,1,32.5,0.9
			s-0.3-0.1-0.4-0.1c0,0-0.1,0-0.1,0.1c0,0-0.1,0.1-0.1,0.2c-0.1,0.3-0.2,0.6-0.4,1c-0.1,0.4-0.3,0.8-0.4,1.3
			c-0.1,0.5-0.3,0.9-0.4,1.4c-0.1,0.5-0.3,0.9-0.4,1.3c-0.1,0.4-0.2,0.8-0.3,1.1s-0.1,0.5-0.2,0.7c-0.1,0.4-0.2,0.8-0.3,1.2
			c-0.1,0.4-0.1,0.9-0.1,1.3c0,0.6,0.1,1,0.3,1.2c0.2,0.2,0.4,0.4,0.7,0.4c0.3,0,0.6-0.1,0.9-0.4c0.3-0.2,0.5-0.4,0.8-0.7
			c0.3-0.3,0.5-0.6,0.7-0.9c0.1-0.2,0.2-0.4,0.4-0.6c0,0.1,0,0.3,0,0.4c0,0.3,0,0.5,0.1,0.8s0.2,0.5,0.3,0.6s0.3,0.3,0.6,0.4
			c0.2,0.1,0.5,0.2,0.8,0.2c0.5,0,0.9-0.1,1.4-0.3c0.4-0.2,0.8-0.5,1.2-0.9s0.7-0.8,1-1.2c0.1-0.1,0.1-0.2,0.2-0.3
			c0,0.1,0,0.2,0,0.3c0,0.3,0,0.5,0.1,0.7c0,0.2,0.1,0.4,0.2,0.6c0.1,0.2,0.2,0.3,0.4,0.4c0.2,0.1,0.3,0.1,0.6,0.1
			c0.1,0,0.2,0,0.3,0c0.3-0.1,0.7-0.3,1-0.6c0.3-0.3,0.7-0.7,1-1.2c0,0.2-0.1,0.3-0.1,0.5c0,0.1,0,0.3,0,0.4c0,0.6,0.1,1,0.3,1.2
			c0.2,0.2,0.4,0.4,0.7,0.4c0.3,0,0.6-0.1,0.9-0.4c0.6-0.4,1.1-0.9,1.5-1.5c0.4-0.6,0.8-1.3,1.1-2C46.5,8,46.6,7.9,46.5,7.8
			C46.6,7.9,46.6,7.8,46.5,7.8C46.5,7.8,46.5,7.8,46.5,7.8z M36,7.5c0.2-0.4,0.4-0.7,0.6-1s0.4-0.5,0.6-0.7c0.2-0.2,0.5-0.2,0.7-0.2
			c0.1,0.1,0,0.3-0.1,0.5c-0.1,0.2-0.3,0.5-0.5,0.8c-0.2,0.3-0.5,0.6-0.8,0.9c-0.3,0.3-0.6,0.6-0.9,0.9C35.6,8.2,35.8,7.8,36,7.5z"
			/>
		<path d="M54.2,7.9c0-0.1,0-0.1,0-0.2c0,0-0.1,0-0.1,0c0,0-0.1,0.1-0.1,0.3c-0.4,0.8-0.8,1.4-1.1,1.8c-0.3,0.4-0.6,0.7-0.8,0.9
			c-0.2,0.2-0.4,0.3-0.6,0.3s-0.3,0-0.4,0c-0.3,0-0.5-0.1-0.6-0.3c-0.1-0.2-0.2-0.5-0.2-0.9c0-0.4,0-0.8,0.1-1.3
			c0.1-0.5,0.2-1,0.4-1.5s0.3-1,0.6-1.5c0.2-0.5,0.4-0.9,0.7-1.2c0.2-0.3,0.5-0.6,0.7-0.8c0.2-0.2,0.4-0.2,0.6-0.1
			c0.2,0,0.3,0.2,0.3,0.4c0,0.2,0,0.4-0.1,0.7c-0.1,0.3-0.2,0.5-0.4,0.8S52.9,6,52.7,6.2s-0.3,0.3-0.5,0.4c-0.1,0.1-0.2,0-0.2-0.2
			c-0.2,0.4-0.3,0.7-0.3,0.9c-0.1,0.2-0.1,0.3-0.1,0.4s0.1,0.1,0.1,0c0.1-0.1,0.2-0.1,0.3-0.3s0.2-0.3,0.4-0.4
			c0.1-0.2,0.3-0.3,0.4-0.4C53,6.4,53.2,6.2,53.3,6s0.3-0.4,0.5-0.6s0.2-0.4,0.3-0.6c0.1-0.2,0.1-0.4,0.1-0.6c0-0.2,0-0.4-0.1-0.5
			s-0.2-0.3-0.4-0.4c-0.5-0.3-0.9-0.4-1.3-0.4c-0.4,0-0.8,0.1-1.2,0.4c-0.4,0.3-0.8,0.6-1.1,1.1s-0.6,1-0.9,1.5
			c-0.3,0.6-0.5,1.2-0.6,1.9c-0.1,0.4-0.2,0.9-0.3,1.3c-0.1,0.4-0.1,0.8-0.1,1.2c0,0.4,0,0.7,0.1,1s0.2,0.5,0.4,0.8
			c0.2,0.2,0.4,0.4,0.7,0.5c0.3,0.1,0.6,0.2,1,0.2c0.4,0,0.8-0.1,1.1-0.4c0.4-0.3,0.7-0.6,1-1c0.3-0.4,0.6-0.9,0.9-1.4
			c0.3-0.5,0.5-1,0.7-1.6C54.2,8.1,54.2,8,54.2,7.9z"/>
		<path d="M90,3.5c-0.1-0.4-0.3-0.7-0.6-1c-0.3-0.3-0.6-0.5-1-0.7S87.6,1.5,87,1.5s-1.1,0-1.8,0.2C84,1.9,82.6,2.5,81,3.4
			c-0.4,0.3-0.9,0.5-1.3,0.8S78.7,4.7,78.3,5c-0.6,0.4-1.2,0.7-1.8,1.1c-0.6,0.4-1.2,0.7-1.8,1c-0.6,0.3-1.1,0.6-1.6,0.8
			c-0.5,0.2-1,0.4-1.4,0.5c-0.2,0-0.4,0.1-0.7,0.1s-0.5,0-0.7,0c-0.2,0-0.4-0.1-0.6-0.2c-0.2-0.1-0.3-0.3-0.3-0.5
			c0.1-0.3,0.2-0.6,0.3-0.9c0.1-0.4,0.2-0.7,0.3-1.1s0.2-0.8,0.4-1.1s0.2-0.7,0.4-1c0.1-0.3,0.2-0.6,0.3-0.8
			c0.1-0.2,0.2-0.3,0.2-0.4c0.1,0,0.1,0,0.1-0.1c0-0.1-0.1-0.2-0.2-0.3c-0.1-0.1-0.2-0.2-0.3-0.3c-0.1-0.1-0.3-0.2-0.4-0.3
			C70.3,1.2,70.2,1.1,70,1c-0.2-0.1-0.3-0.1-0.4-0.1c-0.1,0-0.1,0.1-0.2,0.2c-0.1,0.2-0.2,0.6-0.4,1c-0.1,0.4-0.3,0.9-0.5,1.5
			s-0.3,1.1-0.5,1.7c-0.2,0.6-0.3,1.2-0.5,1.7s-0.3,1-0.4,1.5c0,0,0,0.1,0,0.1c-0.1,0.2-0.2,0.4-0.3,0.5C66.5,9.5,66.3,9.8,66,10
			c-0.3,0.3-0.5,0.5-0.8,0.6c-0.3,0.1-0.5,0.2-0.8,0.2c-0.1,0-0.2,0-0.2,0s-0.1,0-0.2-0.1c-0.1-0.1-0.2-0.2-0.3-0.3
			c-0.1-0.1-0.1-0.3-0.1-0.5c0-0.2,0-0.5,0.1-0.9c0.4-0.4,0.8-0.7,1.2-1.1c0.4-0.4,0.8-0.8,1.1-1.3c0.1-0.1,0.2-0.2,0.3-0.3
			c0.1-0.1,0.2-0.2,0.2-0.3c0.1-0.1,0.1-0.2,0.1-0.4c0-0.1-0.1-0.3-0.1-0.4c-0.2-0.2-0.4-0.3-0.6-0.5c-0.2-0.1-0.5-0.2-0.7-0.2
			c-0.3,0-0.6,0.1-0.9,0.2C64,5,63.7,5.3,63.4,5.5s-0.5,0.6-0.8,0.9S62.2,7.2,62,7.6c-0.2,0.4-0.3,0.8-0.4,1.2c0,0.1,0,0.2-0.1,0.3
			c-0.1,0.2-0.2,0.4-0.4,0.5c-0.2,0.2-0.4,0.5-0.5,0.6c-0.2,0.2-0.3,0.2-0.5,0.2c-0.3,0-0.5-0.1-0.5-0.5c0-0.2,0.1-0.5,0.2-0.8
			s0.3-0.7,0.4-1.1c0.2-0.4,0.3-0.8,0.4-1.2s0.2-0.8,0.2-1.1c0-0.3-0.1-0.6-0.2-0.8c-0.2-0.2-0.5-0.3-0.9-0.3c-0.1,0-0.3,0-0.4,0.1
			c-0.2,0.1-0.3,0.2-0.5,0.3c-0.2,0.1-0.4,0.3-0.6,0.5c-0.2,0.2-0.4,0.5-0.6,0.8c-0.2,0.3-0.4,0.6-0.6,0.9c-0.2,0.3-0.4,0.6-0.6,0.9
			c0.1-0.6,0.3-1.1,0.5-1.7s0.3-1.2,0.5-1.7c0.2-0.5,0.3-1,0.5-1.4c0.2-0.4,0.3-0.7,0.5-0.9c0.1,0,0.1,0,0.1-0.1
			c0-0.1-0.1-0.2-0.2-0.3S58.1,1.7,58,1.6s-0.3-0.2-0.4-0.3C57.4,1.1,57.3,1,57.1,1c-0.2-0.1-0.3-0.1-0.4-0.1
			c-0.1,0-0.1,0.1-0.2,0.2c-0.1,0.2-0.2,0.6-0.4,1.1s-0.3,1-0.5,1.6S55.2,5,55,5.7c-0.2,0.7-0.4,1.3-0.5,1.9
			c-0.2,0.6-0.3,1.1-0.4,1.6c-0.1,0.4-0.2,0.8-0.2,0.9c0,0.1,0,0.2,0.1,0.3c0.1,0.1,0.2,0.3,0.4,0.4c0.1,0.1,0.3,0.3,0.5,0.4
			c0.2,0.1,0.3,0.2,0.5,0.2c0.1,0,0.1,0,0.2-0.1c0.1-0.1,0.1-0.3,0.2-0.7c0.1-0.4,0.2-0.8,0.3-1.3c0.1-0.3,0.3-0.7,0.5-1.1
			c0.2-0.4,0.4-0.7,0.6-1c0.2-0.3,0.4-0.6,0.6-0.8C58,6.2,58.1,6.1,58.3,6c0.2-0.1,0.4,0,0.4,0.3c0,0.2,0,0.5-0.1,0.8
			c-0.1,0.3-0.1,0.5-0.2,0.8c-0.1,0.3-0.2,0.6-0.3,0.8C58,9,57.9,9.3,57.9,9.6c0,0.2-0.1,0.4-0.1,0.7c0,0.3,0,0.5,0,0.8
			c0,0.3,0.1,0.5,0.3,0.7c0.1,0.2,0.3,0.3,0.6,0.3c0.1,0,0.3,0,0.4-0.1c0.2-0.1,0.3-0.2,0.5-0.3c0.6-0.4,1.1-0.9,1.5-1.5
			c0.1-0.2,0.3-0.4,0.4-0.6c0,0.1,0,0.3,0,0.4c0,0.3,0,0.5,0.1,0.8c0.1,0.2,0.2,0.5,0.3,0.6c0.1,0.2,0.3,0.3,0.6,0.4
			c0.2,0.1,0.5,0.2,0.8,0.2c0.5,0,0.9-0.1,1.4-0.3c0.4-0.2,0.8-0.5,1.2-0.9s0.7-0.8,1-1.2c0-0.1,0.1-0.1,0.1-0.2c0,0,0,0.1,0,0.1
			c-0.3,1.3-0.6,2.4-0.7,3.3c-0.2,0.8-0.2,1.5-0.2,2c0,0.3,0,0.5,0.1,0.7s0.1,0.3,0.2,0.4s0.2,0.2,0.3,0.2c0.1,0,0.3,0.1,0.4,0.1
			c0.2,0,0.4-0.1,0.6-0.3c0.2-0.2,0.5-0.5,0.7-0.8c0.2-0.3,0.5-0.7,0.7-1.1s0.4-0.9,0.6-1.3c0.2-0.5,0.3-0.9,0.4-1.4
			c0.1-0.5,0.2-0.9,0.2-1.4c0-0.4,0-0.7-0.1-1C70.4,8.9,70.9,9,71.3,9c0.4,0,0.9-0.1,1.3-0.2c0.4-0.1,0.9-0.3,1.3-0.5
			c0.4-0.2,0.9-0.4,1.4-0.7c0.5-0.3,1-0.5,1.5-0.8c0.5-0.3,1-0.5,1.6-0.8c0.5-0.3,1-0.5,1.5-0.8c0.5-0.3,1-0.5,1.5-0.7
			c0.6-0.3,1.2-0.5,1.7-0.7c0.6-0.2,1.1-0.4,1.5-0.5c0.7-0.2,1.4-0.3,1.9-0.3c0.5,0,1,0,1.4,0.1c0.4,0.1,0.7,0.3,0.9,0.5
			c0.2,0.2,0.4,0.5,0.5,0.7c0.1,0.4,0.1,0.9,0,1.3c-0.1,0.5-0.4,1-0.8,1.4s-0.9,0.9-1.5,1.3c-0.6,0.4-1.3,0.7-2.1,0.9
			C85,9.3,85,9.4,85,9.4c0,0.1,0,0.1,0,0.2c0,0.1,0,0.1,0.1,0.2c0,0.1,0.1,0.1,0.1,0.1c1-0.3,1.8-0.7,2.5-1.1c0.7-0.5,1.2-1,1.7-1.6
			c0.4-0.6,0.7-1.2,0.8-1.8C90.2,4.6,90.2,4.1,90,3.5z M64.3,7.5c0.2-0.4,0.4-0.7,0.6-1s0.4-0.5,0.6-0.7c0.2-0.2,0.5-0.2,0.7-0.2
			c0.1,0.1,0,0.3-0.1,0.5c-0.1,0.2-0.3,0.5-0.5,0.8c-0.2,0.3-0.5,0.6-0.8,0.9c-0.3,0.3-0.6,0.6-0.9,0.9C64,8.2,64.1,7.8,64.3,7.5z
			 M67,10.3L67,10.3L67,10.3L67,10.3z M69.7,11c-0.1,0.3-0.2,0.7-0.3,1c-0.1,0.3-0.2,0.6-0.4,0.9c-0.1,0.3-0.3,0.5-0.4,0.7
			c-0.1,0.2-0.3,0.3-0.4,0.4C68.2,14,68.1,14,68,14C68,14,68,13.8,68,13.6c0-0.2,0-0.5,0.1-0.9c0.1-0.3,0.1-0.7,0.2-1.1
			c0.1-0.4,0.2-0.8,0.3-1.2c0.1-0.4,0.2-0.8,0.3-1.2c0.1-0.4,0.2-0.7,0.3-0.9c0.3,0.3,0.4,0.5,0.5,0.8c0.1,0.3,0.1,0.6,0.1,0.8
			C69.8,10.3,69.8,10.7,69.7,11z"/>
	</g>
</g>
<g id="Bleu_copy">
	<g>
		<path class="st0" d="M29.5,8.2l-1,0.2c0-0.2,0-0.5,0-0.7c0-0.2-0.1-0.4-0.2-0.5c-0.1-0.1-0.2-0.3-0.4-0.4
			c-0.2-0.1-0.4-0.1-0.6-0.1c0.4-0.2,0.7-0.4,0.9-0.6c0.2-0.2,0.5-0.5,0.6-0.7c0.2-0.3,0.3-0.5,0.3-0.8c0.1-0.3,0.1-0.5,0.1-0.7
			c0-0.3-0.1-0.6-0.2-0.8s-0.3-0.3-0.6-0.3s-0.6,0.1-1,0.4c-0.4,0.3-0.9,0.7-1.5,1.3c0-0.1,0.1-0.2,0.1-0.3c0-0.1,0-0.2,0.1-0.3
			c0-0.1,0-0.1-0.1-0.2c-0.1-0.1-0.2-0.2-0.3-0.3c-0.1-0.1-0.3-0.2-0.4-0.3C25.2,3.1,25.1,3,24.9,3c-0.1-0.1-0.3-0.1-0.4-0.2
			s-0.2,0-0.2,0C24.2,3.2,24.1,3.6,24,4c-0.1,0.4-0.2,0.8-0.3,1.2c-0.1,0.4-0.2,0.8-0.3,1.2c-0.4-0.1-0.8-0.2-1.2-0.3
			c-0.7-0.1-1.5-0.1-2.2,0c-0.8,0.1-1.5,0.3-2.3,0.6c-0.8,0.3-1.6,0.6-2.4,1c-0.8,0.4-1.6,0.8-2.4,1.2c-0.8,0.4-1.6,0.8-2.4,1.2
			c-0.8,0.4-1.5,0.7-2.3,1.1S6.7,11.7,6,11.9c-0.7,0.2-1.4,0.3-1.9,0.3c-0.5,0-1,0-1.4-0.1c-0.4-0.1-0.7-0.3-0.9-0.5
			s-0.4-0.5-0.5-0.7c-0.1-0.4-0.1-0.9,0-1.3c0.1-0.5,0.4-1,0.8-1.4C2.5,7.6,3,7.2,3.6,6.8s1.3-0.7,2.1-0.9c0.1,0,0.1-0.1,0.1-0.1
			c0-0.1,0-0.1,0-0.2s0-0.1-0.1-0.2S5.7,5.4,5.6,5.4c-1,0.3-1.8,0.7-2.5,1.1C2.4,7,1.8,7.6,1.4,8.2C1,8.8,0.8,9.4,0.7,10
			c-0.1,0.6-0.1,1.2,0.1,1.7c0.1,0.4,0.3,0.7,0.6,1c0.3,0.3,0.6,0.5,1,0.7c0.4,0.2,0.9,0.3,1.4,0.3c0.5,0,1.1,0,1.8-0.2
			c0.7-0.2,1.5-0.4,2.3-0.8c0.8-0.4,1.7-0.8,2.5-1.2s1.7-0.9,2.6-1.5c0.9-0.5,1.7-1,2.6-1.5s1.7-0.9,2.5-1.2
			c0.8-0.4,1.5-0.6,2.2-0.8c0.3-0.1,0.6-0.1,0.9-0.1s0.6,0,0.9,0s0.6,0.1,0.9,0.2c0.1,0,0.2,0.1,0.3,0.1c-0.1,0.4-0.2,0.8-0.3,1.1
			c-0.2,0.8-0.5,1.5-0.7,2.1s-0.5,1.1-0.7,1.4c-0.2,0.3-0.5,0.5-0.8,0.6c-0.2,0-0.3,0.1-0.4,0.1c0,0,0.1,0.1,0.3,0.2
			c0.3,0.1,0.6,0.1,0.8,0.1c0.3,0,0.6-0.1,0.9-0.2c0.3-0.1,0.5-0.3,0.8-0.6c0.2-0.2,0.5-0.5,0.6-0.9c0.2-0.3,0.4-0.7,0.5-1
			c0.2-0.4,0.3-0.7,0.4-1.1c0.1-0.4,0.2-0.8,0.4-1.1c0.1,0,0.3,0,0.5,0s0.3-0.1,0.5-0.1c0.2,0,0.3,0.1,0.4,0.1
			c0.1,0.1,0.2,0.3,0.2,0.6c0,0.3-0.1,0.6-0.2,0.9c-0.4,0.2-0.7,0.3-1,0.5c-0.3,0.2-0.5,0.3-0.7,0.5c-0.2,0.2-0.3,0.3-0.4,0.5
			c-0.1,0.2-0.2,0.3-0.2,0.4c0,0.2,0,0.3,0,0.4c0,0.1,0.1,0.2,0.1,0.3c0.1,0.1,0.1,0.1,0.2,0.2c0.1,0,0.1,0.1,0.2,0.1
			c0.5,0,0.9,0,1.3-0.2c0.4-0.2,0.8-0.4,1.1-0.7c0.3-0.3,0.6-0.7,0.8-1.1c0.2-0.4,0.4-0.8,0.4-1.1c0.2,0,0.3,0,0.4,0
			c0.1,0,0.2,0,0.4,0c0,0,0-0.1,0.1-0.1c0-0.1,0.1-0.1,0.1-0.2C29.4,8.4,29.4,8.3,29.5,8.2z M26,10.3c-0.1,0.2-0.3,0.4-0.4,0.6
			c-0.1,0.2-0.3,0.3-0.4,0.4s-0.3,0.2-0.4,0.2c-0.3,0-0.4-0.1-0.4-0.2c0-0.2,0.2-0.4,0.5-0.7s0.8-0.6,1.5-0.9
			C26.2,9.8,26.1,10.1,26,10.3z M27.2,5c-0.1,0.3-0.2,0.5-0.4,0.8s-0.4,0.5-0.6,0.8c-0.3,0.2-0.5,0.4-0.8,0.6l0.1-0.5
			c0.1-0.4,0.2-0.7,0.3-1C25.8,5.3,25.9,5.1,26,5c0.2-0.3,0.4-0.5,0.6-0.6c0.2-0.1,0.3-0.2,0.4-0.3c0.1,0,0.2,0,0.2,0
			s0.1,0.2,0.1,0.3C27.3,4.6,27.3,4.8,27.2,5z"/>
		<path class="st0" d="M46.4,7.8C46.4,7.8,46.4,7.8,46.4,7.8c-0.2,0.4-0.3,0.7-0.5,0.9s-0.3,0.6-0.5,0.8c-0.2,0.2-0.4,0.4-0.5,0.6
			c-0.2,0.2-0.3,0.2-0.5,0.3c-0.3,0-0.4-0.1-0.4-0.5c0-0.2,0-0.4,0.1-0.6s0.1-0.5,0.2-0.8s0.2-0.5,0.3-0.8c0.1-0.3,0.2-0.5,0.3-0.8
			c0.1-0.2,0.2-0.5,0.3-0.6s0.2-0.3,0.3-0.4c0.1,0,0.1-0.1,0-0.2c-0.1-0.1-0.2-0.3-0.4-0.5c-0.2-0.2-0.4-0.3-0.6-0.5
			c-0.2-0.1-0.5-0.2-0.6-0.2c-0.1,0-0.1,0.1-0.2,0.2c-0.1,0.2-0.2,0.5-0.3,0.9c-0.1,0.4-0.2,0.8-0.4,1.1c-0.1,0.4-0.2,0.7-0.3,1.1
			c-0.1,0.3-0.2,0.6-0.2,0.8c0,0.1-0.1,0.3-0.2,0.4s-0.3,0.4-0.4,0.5c-0.2,0.2-0.3,0.3-0.5,0.4c-0.2,0.1-0.3,0.1-0.4,0h0
			c-0.1-0.1-0.2-0.2-0.2-0.4c0-0.1,0-0.3,0.1-0.5c0-0.2,0.1-0.5,0.2-0.8L41,7.4c0.1-0.2,0.1-0.4,0.2-0.6c0.1-0.2,0.1-0.3,0.2-0.5
			c0.1-0.1,0.1-0.2,0.2-0.3c0.1-0.1,0.1-0.2,0.2-0.3c-0.1,0-0.1,0-0.3,0c-0.1,0-0.3-0.1-0.4-0.1c-0.2-0.1-0.3-0.1-0.5-0.2
			s-0.3-0.2-0.4-0.3S39.9,5,39.8,4.9c-0.1-0.1-0.1-0.2-0.1-0.3l-0.3,0.9c-0.1,0.2-0.1,0.3-0.1,0.4c0,0.1-0.1,0.3-0.1,0.5
			S39.1,6.7,39,7c-0.1,0.3-0.2,0.6-0.3,1c-0.1,0.2-0.1,0.4-0.1,0.6c-0.1,0.1-0.1,0.2-0.2,0.3c-0.2,0.4-0.5,0.7-0.8,0.9
			c-0.3,0.3-0.5,0.5-0.8,0.6c-0.3,0.1-0.5,0.2-0.8,0.2c-0.1,0-0.2,0-0.2,0s-0.1,0-0.2-0.1c-0.1-0.1-0.2-0.2-0.3-0.3
			c-0.1-0.1-0.1-0.3-0.1-0.5c0-0.2,0-0.5,0.1-0.9c0.4-0.4,0.8-0.7,1.2-1.1c0.4-0.4,0.8-0.8,1.1-1.3c0.1-0.1,0.2-0.2,0.3-0.3
			c0.1-0.1,0.2-0.2,0.2-0.3c0.1-0.1,0.1-0.2,0.1-0.4c0-0.1-0.1-0.3-0.1-0.4c-0.2-0.2-0.4-0.3-0.6-0.5c-0.2-0.1-0.5-0.2-0.7-0.2
			c-0.3,0-0.6,0.1-0.9,0.2C35.6,5,35.3,5.2,35,5.4c-0.3,0.3-0.5,0.6-0.8,0.9c-0.2,0.4-0.4,0.7-0.6,1.1c-0.2,0.4-0.3,0.8-0.4,1.2
			c0,0.1,0,0.2-0.1,0.3c-0.1,0.2-0.3,0.4-0.4,0.6c-0.2,0.2-0.4,0.4-0.5,0.6c-0.2,0.2-0.3,0.2-0.5,0.2c-0.1,0-0.2,0-0.3-0.1
			c-0.1-0.1-0.1-0.2-0.1-0.3s0-0.3,0-0.5c0-0.2,0.1-0.4,0.1-0.6c0-0.2,0.1-0.4,0.1-0.6c0.1-0.2,0.1-0.4,0.2-0.6
			c0-0.2,0.1-0.4,0.2-0.8s0.2-0.7,0.3-1.1s0.3-0.8,0.4-1.2c0.1-0.4,0.3-0.8,0.4-1.1c0.1-0.3,0.2-0.6,0.3-0.9
			c0.1-0.2,0.2-0.4,0.2-0.4c0.1,0,0.1,0,0.1-0.1c0-0.1-0.1-0.2-0.2-0.3s-0.2-0.2-0.3-0.3c-0.1-0.1-0.3-0.2-0.4-0.3s-0.3-0.2-0.5-0.3
			S32.1,0.8,32,0.8c0,0-0.1,0-0.1,0.1c0,0-0.1,0.1-0.1,0.2c-0.1,0.3-0.2,0.6-0.4,1c-0.1,0.4-0.3,0.8-0.4,1.3
			c-0.1,0.5-0.3,0.9-0.4,1.4c-0.1,0.5-0.3,0.9-0.4,1.3c-0.1,0.4-0.2,0.8-0.3,1.1s-0.1,0.5-0.2,0.7c-0.1,0.4-0.2,0.8-0.3,1.2
			c-0.1,0.4-0.1,0.9-0.1,1.3c0,0.6,0.1,1,0.3,1.2c0.2,0.2,0.4,0.4,0.7,0.4c0.3,0,0.6-0.1,0.9-0.4c0.3-0.2,0.5-0.4,0.8-0.7
			c0.3-0.3,0.5-0.6,0.7-0.9c0.1-0.2,0.2-0.4,0.4-0.6c0,0.1,0,0.3,0,0.4c0,0.3,0,0.5,0.1,0.8s0.2,0.5,0.3,0.6s0.3,0.3,0.6,0.4
			c0.2,0.1,0.5,0.2,0.8,0.2c0.5,0,0.9-0.1,1.4-0.3c0.4-0.2,0.8-0.5,1.2-0.9s0.7-0.8,1-1.2c0.1-0.1,0.1-0.2,0.2-0.3
			c0,0.1,0,0.2,0,0.3c0,0.3,0,0.5,0.1,0.7c0,0.2,0.1,0.4,0.2,0.6c0.1,0.2,0.2,0.3,0.4,0.4c0.2,0.1,0.3,0.1,0.6,0.1
			c0.1,0,0.2,0,0.3,0c0.3-0.1,0.7-0.3,1-0.6c0.3-0.3,0.7-0.7,1-1.2C42,9.6,42,9.8,42,9.9c0,0.1,0,0.3,0,0.4c0,0.6,0.1,1,0.3,1.2
			c0.2,0.2,0.4,0.4,0.7,0.4c0.3,0,0.6-0.1,0.9-0.4c0.6-0.4,1.1-0.9,1.5-1.5c0.4-0.6,0.8-1.3,1.1-2C46.5,7.9,46.5,7.9,46.4,7.8
			C46.5,7.8,46.5,7.8,46.4,7.8C46.5,7.7,46.5,7.7,46.4,7.8z M35.9,7.4c0.2-0.4,0.4-0.7,0.6-1s0.4-0.5,0.6-0.7
			c0.2-0.2,0.5-0.2,0.7-0.2c0.1,0.1,0,0.3-0.1,0.5c-0.1,0.2-0.3,0.5-0.5,0.8c-0.2,0.3-0.5,0.6-0.8,0.9c-0.3,0.3-0.6,0.6-0.9,0.9
			C35.6,8.1,35.7,7.8,35.9,7.4z"/>
		<path class="st0" d="M54.2,7.8c0-0.1,0-0.1,0-0.2c0,0-0.1,0-0.1,0C54,7.8,54,7.9,54,8c-0.4,0.8-0.8,1.4-1.1,1.8
			c-0.3,0.4-0.6,0.7-0.8,0.9c-0.2,0.2-0.4,0.3-0.6,0.3s-0.3,0-0.4,0c-0.3,0-0.5-0.1-0.6-0.3c-0.1-0.2-0.2-0.5-0.2-0.9
			c0-0.4,0-0.8,0.1-1.3c0.1-0.5,0.2-1,0.4-1.5s0.3-1,0.6-1.5c0.2-0.5,0.4-0.9,0.7-1.2c0.2-0.3,0.5-0.6,0.7-0.8
			c0.2-0.2,0.4-0.2,0.6-0.1c0.2,0,0.3,0.2,0.3,0.4c0,0.2,0,0.4-0.1,0.7c-0.1,0.3-0.2,0.5-0.4,0.8S52.8,6,52.6,6.1s-0.3,0.3-0.5,0.4
			c-0.1,0.1-0.2,0-0.2-0.2c-0.2,0.4-0.3,0.7-0.3,0.9c-0.1,0.2-0.1,0.3-0.1,0.4s0.1,0.1,0.1,0c0.1-0.1,0.2-0.1,0.3-0.3
			s0.2-0.3,0.4-0.4c0.1-0.2,0.3-0.3,0.4-0.4c0.2-0.2,0.4-0.4,0.5-0.6s0.3-0.4,0.5-0.6s0.2-0.4,0.3-0.6c0.1-0.2,0.1-0.4,0.1-0.6
			c0-0.2,0-0.4-0.1-0.5s-0.2-0.3-0.4-0.4c-0.5-0.3-0.9-0.4-1.3-0.4c-0.4,0-0.8,0.1-1.2,0.4c-0.4,0.3-0.8,0.6-1.1,1.1s-0.6,1-0.9,1.5
			c-0.3,0.6-0.5,1.2-0.6,1.9c-0.1,0.4-0.2,0.9-0.3,1.3c-0.1,0.4-0.1,0.8-0.1,1.2c0,0.4,0,0.7,0.1,1s0.2,0.5,0.4,0.8
			c0.2,0.2,0.4,0.4,0.7,0.5c0.3,0.1,0.6,0.2,1,0.2c0.4,0,0.8-0.1,1.1-0.4c0.4-0.3,0.7-0.6,1-1c0.3-0.4,0.6-0.9,0.9-1.4
			c0.3-0.5,0.5-1,0.7-1.6C54.2,8,54.2,7.9,54.2,7.8z"/>
		<path class="st0" d="M90,3.5c-0.1-0.4-0.3-0.7-0.6-1c-0.3-0.3-0.6-0.5-1-0.7s-0.9-0.3-1.4-0.3s-1.1,0-1.8,0.2
			c-1.2,0.3-2.6,0.9-4.2,1.8c-0.4,0.3-0.9,0.5-1.3,0.8s-0.9,0.5-1.3,0.8C77.6,5.3,77,5.6,76.4,6c-0.6,0.4-1.2,0.7-1.8,1
			c-0.6,0.3-1.1,0.6-1.6,0.8s-1,0.4-1.4,0.5c-0.2,0-0.4,0.1-0.7,0.1s-0.5,0-0.7,0c-0.2,0-0.4-0.1-0.6-0.2c-0.2-0.1-0.3-0.3-0.3-0.5
			c0.1-0.3,0.2-0.6,0.3-0.9c0.1-0.4,0.2-0.7,0.3-1.1s0.2-0.8,0.4-1.1s0.2-0.7,0.4-1c0.1-0.3,0.2-0.6,0.3-0.8
			c0.1-0.2,0.2-0.3,0.2-0.4c0.1,0,0.1,0,0.1-0.1c0-0.1-0.1-0.2-0.2-0.3c-0.1-0.1-0.2-0.2-0.3-0.3c-0.1-0.1-0.3-0.2-0.4-0.3
			c-0.2-0.1-0.3-0.2-0.5-0.3c-0.2-0.1-0.3-0.1-0.4-0.1c-0.1,0-0.1,0.1-0.2,0.2c-0.1,0.2-0.2,0.6-0.4,1c-0.1,0.4-0.3,0.9-0.5,1.5
			S68.2,4.6,68,5.2c-0.2,0.6-0.3,1.2-0.5,1.7s-0.3,1-0.4,1.5c0,0,0,0.1,0,0.1c-0.1,0.2-0.2,0.4-0.3,0.5C66.5,9.4,66.2,9.7,66,10
			c-0.3,0.3-0.5,0.5-0.8,0.6c-0.3,0.1-0.5,0.2-0.8,0.2c-0.1,0-0.2,0-0.2,0s-0.1,0-0.2-0.1c-0.1-0.1-0.2-0.2-0.3-0.3
			c-0.1-0.1-0.1-0.3-0.1-0.5c0-0.2,0-0.5,0.1-0.9c0.4-0.4,0.8-0.7,1.2-1.1c0.4-0.4,0.8-0.8,1.1-1.3c0.1-0.1,0.2-0.2,0.3-0.3
			c0.1-0.1,0.2-0.2,0.2-0.3c0.1-0.1,0.1-0.2,0.1-0.4c0-0.1-0.1-0.3-0.1-0.4c-0.2-0.2-0.4-0.3-0.6-0.5c-0.2-0.1-0.5-0.2-0.7-0.2
			c-0.3,0-0.6,0.1-0.9,0.2c-0.3,0.2-0.6,0.4-0.9,0.6S62.8,6,62.6,6.4s-0.4,0.7-0.6,1.1c-0.2,0.4-0.3,0.8-0.4,1.2
			c0,0.1,0,0.2-0.1,0.3c-0.1,0.2-0.2,0.4-0.4,0.5c-0.2,0.2-0.4,0.5-0.5,0.6c-0.2,0.2-0.3,0.2-0.5,0.2c-0.3,0-0.5-0.1-0.5-0.5
			c0-0.2,0.1-0.5,0.2-0.8s0.3-0.7,0.4-1.1c0.2-0.4,0.3-0.8,0.4-1.2s0.2-0.8,0.2-1.1c0-0.3-0.1-0.6-0.2-0.8c-0.2-0.2-0.5-0.3-0.9-0.3
			c-0.1,0-0.3,0-0.4,0.1c-0.2,0.1-0.3,0.2-0.5,0.3c-0.2,0.1-0.4,0.3-0.6,0.5c-0.2,0.2-0.4,0.5-0.6,0.8C57.4,6.4,57.2,6.7,57,7
			c-0.2,0.3-0.4,0.6-0.6,0.9c0.1-0.6,0.3-1.1,0.5-1.7s0.3-1.2,0.5-1.7c0.2-0.5,0.3-1,0.5-1.4c0.2-0.4,0.3-0.7,0.5-0.9
			c0.1,0,0.1,0,0.1-0.1c0-0.1-0.1-0.2-0.2-0.3s-0.2-0.2-0.3-0.3s-0.3-0.2-0.4-0.3C57.3,1,57.2,1,57,0.9c-0.2-0.1-0.3-0.1-0.4-0.1
			c-0.1,0-0.1,0.1-0.2,0.2c-0.1,0.2-0.2,0.6-0.4,1.1s-0.3,1-0.5,1.6S55.1,5,55,5.6c-0.2,0.7-0.4,1.3-0.5,1.9C54.3,8.1,54.1,8.6,54,9
			c-0.1,0.4-0.2,0.8-0.2,0.9c0,0.1,0,0.2,0.1,0.3c0.1,0.1,0.2,0.3,0.4,0.4c0.1,0.1,0.3,0.3,0.5,0.4c0.2,0.1,0.3,0.2,0.5,0.2
			c0.1,0,0.1,0,0.2-0.1c0.1-0.1,0.1-0.3,0.2-0.7c0.1-0.4,0.2-0.8,0.3-1.3c0.1-0.3,0.3-0.7,0.5-1.1c0.2-0.4,0.4-0.7,0.6-1
			c0.2-0.3,0.4-0.6,0.6-0.8C57.9,6.1,58.1,6,58.2,6c0.2-0.1,0.4,0,0.4,0.3c0,0.2,0,0.5-0.1,0.8c-0.1,0.3-0.1,0.5-0.2,0.8
			c-0.1,0.3-0.2,0.6-0.3,0.8c-0.1,0.3-0.2,0.5-0.2,0.8c0,0.2-0.1,0.4-0.1,0.7c0,0.3,0,0.5,0,0.8c0,0.3,0.1,0.5,0.3,0.7
			c0.1,0.2,0.3,0.3,0.6,0.3c0.1,0,0.3,0,0.4-0.1c0.2-0.1,0.3-0.2,0.5-0.3c0.6-0.4,1.1-0.9,1.5-1.5c0.1-0.2,0.3-0.4,0.4-0.6
			c0,0.1,0,0.3,0,0.4c0,0.3,0,0.5,0.1,0.8c0.1,0.2,0.2,0.5,0.3,0.6c0.1,0.2,0.3,0.3,0.6,0.4c0.2,0.1,0.5,0.2,0.8,0.2
			c0.5,0,0.9-0.1,1.4-0.3c0.4-0.2,0.8-0.5,1.2-0.9s0.7-0.8,1-1.2c0-0.1,0.1-0.1,0.1-0.2c0,0,0,0.1,0,0.1c-0.3,1.3-0.6,2.4-0.7,3.3
			c-0.2,0.8-0.2,1.5-0.2,2c0,0.3,0,0.5,0.1,0.7s0.1,0.3,0.2,0.4s0.2,0.2,0.3,0.2c0.1,0,0.3,0.1,0.4,0.1c0.2,0,0.4-0.1,0.6-0.3
			c0.2-0.2,0.5-0.5,0.7-0.8c0.2-0.3,0.5-0.7,0.7-1.1s0.4-0.9,0.6-1.3c0.2-0.5,0.3-0.9,0.4-1.4c0.1-0.5,0.2-0.9,0.2-1.4
			c0-0.4,0-0.7-0.1-1c0.5,0.2,0.9,0.2,1.4,0.2c0.4,0,0.9-0.1,1.3-0.2c0.4-0.1,0.9-0.3,1.3-0.5c0.4-0.2,0.9-0.4,1.4-0.7
			c0.5-0.3,1-0.5,1.5-0.8c0.5-0.3,1-0.5,1.6-0.8c0.5-0.3,1-0.5,1.5-0.8c0.5-0.3,1-0.5,1.5-0.7c0.6-0.3,1.2-0.5,1.7-0.7
			c0.6-0.2,1.1-0.4,1.5-0.5C85.4,3.1,86.1,3,86.6,3c0.5,0,1,0,1.4,0.1c0.4,0.1,0.7,0.3,0.9,0.5c0.2,0.2,0.4,0.5,0.5,0.7
			c0.1,0.4,0.1,0.9,0,1.3c-0.1,0.5-0.4,1-0.8,1.4S87.8,8,87.2,8.4C86.5,8.7,85.8,9,85,9.2c-0.1,0-0.1,0.1-0.1,0.1c0,0.1,0,0.1,0,0.2
			c0,0.1,0,0.1,0.1,0.2c0,0.1,0.1,0.1,0.1,0.1c1-0.3,1.8-0.7,2.5-1.1c0.7-0.5,1.2-1,1.7-1.6c0.4-0.6,0.7-1.2,0.8-1.8
			C90.2,4.6,90.1,4,90,3.5z M64.2,7.4c0.2-0.4,0.4-0.7,0.6-1s0.4-0.5,0.6-0.7c0.2-0.2,0.5-0.2,0.7-0.2c0.1,0.1,0,0.3-0.1,0.5
			c-0.1,0.2-0.3,0.5-0.5,0.8C65.3,7,65,7.3,64.7,7.6c-0.3,0.3-0.6,0.6-0.9,0.9C63.9,8.1,64.1,7.8,64.2,7.4z M66.9,10.2L66.9,10.2
			L66.9,10.2L66.9,10.2z M69.7,10.9c-0.1,0.3-0.2,0.7-0.3,1c-0.1,0.3-0.2,0.6-0.4,0.9c-0.1,0.3-0.3,0.5-0.4,0.7
			c-0.1,0.2-0.3,0.3-0.4,0.4C68.1,13.9,68,14,68,13.9c-0.1,0-0.1-0.2-0.1-0.4c0-0.2,0-0.5,0.1-0.9c0.1-0.3,0.1-0.7,0.2-1.1
			c0.1-0.4,0.2-0.8,0.3-1.2c0.1-0.4,0.2-0.8,0.3-1.2c0.1-0.4,0.2-0.7,0.3-0.9c0.3,0.3,0.4,0.5,0.5,0.8c0.1,0.3,0.1,0.6,0.1,0.8
			C69.8,10.3,69.7,10.6,69.7,10.9z"/>
	</g>
</g>
</svg>
